HIERARCHY
ROOT Hips
{
  OFFSET 0 0 0
  CHANNELS 6 Xposition Yposition Zposition Zrotation Yrotation Xrotation
  JOINT LeftThigh
  {
    OFFSET 8.409438 0 -5.917753
    CHANNELS 3 Zrotation Yrotation Xrotation
    JOINT LeftLeg
    {
      OFFSET 0 0 -42.358652
      CHANNELS 3 Zrotation Yrotation Xrotation
      JOINT LeftFoot
      {
        OFFSET 0 0 -39.357303
        CHANNELS 3 Zrotation Yrotation Xrotation
      }
    }
  }
  JOINT RightThigh
  {
    OFFSET -8.409438 0 -5.917753
    CHANNELS 3 Zrotation Yrotation Xrotation
    JOINT RightLeg
    {
      OFFSET 0 0 -42.358652
      CHANNELS 3 Zrotation Yrotation Xrotation
      JOINT RightFoot
      {
        OFFSET 0 0 -39.357303
        CHANNELS 3 Zrotation Yrotation Xrotation
      }
    }
  }
  JOINT SpineLow
  {
    OFFSET 0 0 4.719101
    CHANNELS 3 Zrotation Yrotation Xrotation
    JOINT SpineMid
    {
      OFFSET 0 0 12.899191
      CHANNELS 3 Zrotation Yrotation Xrotation
      JOINT Chest
      {
        OFFSET 0 0 12.899191
        CHANNELS 3 Zrotation Yrotation Xrotation
        JOINT LeftShoulder
        {
          OFFSET 7.550562 1.41573 9.438202
          CHANNELS 3 Zrotation Yrotation Xrotation
          JOINT LeftArm
          {
            OFFSET 9.155056 0 4.247191
            CHANNELS 3 Zrotation Yrotation Xrotation
            JOINT LeftForearm
            {
              OFFSET 0 0 25.771955
              CHANNELS 3 Zrotation Yrotation Xrotation
              JOINT LeftHand
              {
                OFFSET 0 0 25.197169
                CHANNELS 3 Zrotation Yrotation Xrotation
              }
            }
          }
        }
        JOINT RightShoulder
        {
          OFFSET -7.550562 1.41573 9.438202
          CHANNELS 3 Zrotation Yrotation Xrotation
          JOINT RightArm
          {
            OFFSET -9.155056 0 4.247191
            CHANNELS 3 Zrotation Yrotation Xrotation
            JOINT RightForearm
            {
              OFFSET 0 0 -25.771955
              CHANNELS 3 Zrotation Yrotation Xrotation
              JOINT RightHand
              {
                OFFSET 0 0 -25.197169
                CHANNELS 3 Zrotation Yrotation Xrotation
              }
            }
          }
        }
        JOINT Neck
        {
          OFFSET 0 0 15.101124
          CHANNELS 3 Zrotation Yrotation Xrotation
          JOINT Head
          {
            OFFSET 0 0 11.325843
            CHANNELS 3 Zrotation Yrotation Xrotation
            End Site
            {
              OFFSET 0 0 14.157303
            }
          }
        }
      }
    }
  }
}
MOTION
Frames: 17
Frame Time: 0.0
0.0  93.25843  0.0  2.501336  -60.736923  -91.047539  22.452818  -6.164968  6.274019  17.997482  -2.530501  13.061137  8.837532  1.03524  1.372402  23.157386  0.714453  -16.711812  5.361934  10.197311  10.106377  4.565794  1.304693  -0.426363  6.519683  1.116536  0.030715  17.833817  3.018244  0.383134  17.833817  3.018244  0.383134  -25.180212  6.998012  -5.51512  -125.351066  51.061521  -94.660118  -9.249548  -1.838461  113.18111  113.236602  10.143503  36.213396  6.494088  -16.428755  23.199592  122.436043  50.164355  41.667558  -17.455643  -18.214682  -117.963243  55.924363  -13.330744  -10.452481  3.039639  -3.581593  4.564937  2.305922  -2.663754  3.440521  
0.0  93.25843  0.0  2.437165  -63.4593  -91.259747  22.443126  -6.107746  6.46453  17.236523  -2.287237  13.127877  9.959486  0.937722  1.704869  25.467125  0.601256  -15.996311  5.197175  9.972617  8.740863  4.559559  1.210589  -0.386056  6.660049  1.080416  0.001498  18.215688  2.927105  0.300343  18.215688  2.927104  0.300343  -26.425918  5.205936  -6.499598  -117.898123  53.357305  -88.083422  -10.965071  -4.25621  114.569481  114.894507  10.968239  39.585546  4.41938  -16.414763  23.788313  122.337768  49.023774  43.52764  -20.595934  -14.891539  -117.352551  58.21594  -11.986728  -11.808941  3.750169  -3.516871  4.600944  2.838438  -2.609724  3.471381  
0.0  93.25843  0.0  2.16551  -65.287453  -91.234864  22.745014  -6.382417  6.511496  16.421433  -1.812203  13.298342  10.930728  0.808028  1.923233  28.09539  0.556646  -15.349996  4.622721  9.828772  7.832804  4.505775  1.187228  -0.305943  6.610831  0.984263  -7.58E-4  18.079117  2.667529  0.265834  18.079117  2.667529  0.265834  -27.142333  3.812171  -7.674677  -109.689973  55.533553  -80.389019  -12.58973  -6.843773  115.466222  116.678674  11.520641  41.968661  2.823806  -15.829577  24.30486  122.027833  47.821908  45.379338  -24.006795  -11.191304  -116.992904  60.085461  -10.653511  -12.17598  4.389208  -3.268882  4.562766  3.315658  -2.41921  3.444854  
0.0  93.25843  0.0  1.896228  -66.148649  -91.109204  23.429321  -6.74853  6.448387  16.132884  -1.507151  13.482302  11.181247  0.773494  2.030478  30.00626  0.485331  -14.715047  4.079853  9.904077  7.250361  4.232115  1.19958  -0.30573  6.388361  0.799592  -0.030498  17.46678  2.176133  0.127583  17.466781  2.176133  0.127583  -27.257002  3.111584  -8.586898  -101.079228  57.351888  -71.798147  -13.950872  -9.916738  116.152931  118.539496  11.927769  43.456808  1.571342  -14.57482  25.18069  121.500121  46.571168  47.269433  -27.608533  -7.782176  -116.277231  61.78504  -9.185184  -12.265872  5.236037  -2.648018  4.848818  3.947644  -1.944793  3.658984  
0.0  93.25843  0.0  1.79511  -65.997696  -91.050449  24.468549  -7.053748  6.331748  16.28561  -1.51116  13.578661  10.948028  1.381735  2.282032  30.54072  0.56319  -14.253261  3.829913  9.925818  6.894172  3.795909  1.168897  -0.232667  5.986459  0.616585  -0.053753  16.365291  1.686776  0.006099  16.365292  1.686776  0.006098  -26.51798  2.518031  -8.847732  -92.748007  58.588331  -62.754539  -15.339401  -13.791438  116.714045  120.20496  12.163467  44.313553  0.731826  -13.053234  25.958033  120.650227  45.195176  49.14307  -31.013062  -4.54615  -115.810572  63.016527  -8.25593  -11.932251  5.9932  -1.984285  5.116798  4.511442  -1.438322  3.857119  
0.0  93.25843  0.0  1.687259  -64.858044  -90.936162  25.63972  -7.418641  6.085205  16.343312  -1.626754  13.63675  10.272259  1.453317  2.286857  29.863573  0.880367  -13.989284  3.782968  9.660482  6.792213  3.676007  1.179469  -0.110547  5.479985  0.556913  -0.05039  14.980278  1.524674  -0.011175  14.980278  1.524674  -0.011175  -25.278817  1.426779  -8.008878  -84.848633  59.034014  -53.169586  -16.936381  -18.489685  116.940731  121.259429  12.182771  44.527232  -0.141396  -12.10727  26.179538  119.633467  43.522289  50.984819  -34.671295  -3.585116  -113.052702  65.695388  -6.211248  -13.763854  6.698778  -1.606871  5.170349  5.037777  -1.148741  3.895679  
0.0  93.25843  0.0  1.334407  -62.697673  -90.653532  26.474424  -7.961446  5.698434  17.731576  -1.240546  14.681332  8.478668  1.32043  1.336902  28.145115  1.186553  -13.625633  3.879519  9.26274  6.757276  3.505178  1.256575  -0.069492  4.972249  0.869191  -0.063831  13.594255  2.377404  0.004605  13.594255  2.377404  0.004605  -24.584192  -2.431421  -5.994314  -78.071459  59.373162  -44.343874  -18.598642  -23.695877  116.690806  119.359428  18.893717  30.075423  -1.745875  -13.799795  25.868153  118.239578  41.44361  52.609222  -35.72802  -2.031016  -112.361626  67.851493  -5.54583  -12.474656  6.710441  -2.612532  4.695439  5.052393  -1.908256  3.550178  
0.0  93.25843  0.0  0.647285  -59.819156  -90.089593  27.11784  -8.675103  5.125729  17.302529  -1.255978  14.610357  8.144553  1.395644  1.415228  26.188639  1.297905  -13.082222  3.782211  8.997078  6.574966  3.368258  1.334542  -0.017972  4.556469  0.858919  -0.008329  12.459165  2.339762  0.138853  12.459165  2.339761  0.138853  -25.062633  -4.943502  -4.446301  -72.030934  59.78952  -36.484401  -19.95956  -28.681545  115.989203  120.540742  20.866221  29.323743  -4.413272  -13.842335  25.502359  116.291586  38.921429  54.079876  -36.293508  -0.365196  -112.406768  68.762398  -6.071898  -11.272103  6.117882  -2.55701  4.5166  4.606854  -1.872894  3.412904  
0.0  93.25843  0.0  -0.304432  -56.411111  -89.321849  27.804255  -9.537715  4.433282  16.621402  -1.209929  14.410932  7.875697  1.376136  1.492089  24.603491  1.302515  -12.424889  1.759872  8.763215  5.846541  3.733132  1.566068  0.120708  4.09179  0.68234  -0.045907  11.185943  1.866727  -0.009837  11.185944  1.866727  -0.009837  -26.072681  -7.100174  -2.878927  -65.659958  60.833758  -29.255805  -20.971701  -32.999244  114.712833  121.480377  22.507582  27.401858  -7.238112  -13.360665  25.743063  113.730717  36.003543  55.83366  -36.964161  -0.633194  -110.791698  70.920341  -5.431012  -12.682669  5.381807  -2.18874  4.795848  4.053341  -1.59959  3.616062  
0.0  93.25843  0.0  -1.25058  -52.520037  -88.560412  28.44134  -10.418591  3.681756  15.695437  -1.229672  14.030439  7.515651  1.435607  1.571571  23.098023  1.407625  -11.823194  0.839755  8.391737  5.637048  3.486948  1.626836  0.221107  3.517323  0.364217  -0.10926  9.613269  1.008996  -0.245048  9.61327  1.008996  -0.245048  -26.618014  -8.529038  -1.752277  -58.069813  62.043088  -21.124183  -21.500851  -36.72325  112.45699  122.225366  23.753532  23.731224  -9.307719  -12.164304  26.114727  110.097217  33.157103  57.556797  -36.216131  1.818426  -111.681902  70.394691  -7.08816  -11.601652  4.848514  -1.391907  5.278078  3.648552  -1.00222  3.969704  
0.0  93.25843  0.0  -1.829602  -48.476895  -88.200834  29.262164  -11.078843  3.160087  14.531558  -1.399935  13.510083  6.880877  1.559651  1.570197  21.647249  1.683135  -11.156987  -0.252817  7.981547  5.528354  3.276764  1.671242  0.317764  2.755332  -0.141481  -0.207835  7.532646  -0.362488  -0.583358  7.532646  -0.362488  -0.583358  -25.933896  -8.583107  -1.478249  -48.243105  63.325101  -10.808004  -20.883066  -39.925508  108.489706  122.654655  24.645004  18.168063  -9.587953  -9.510422  26.855146  105.28974  30.794077  59.03881  -36.461732  1.557152  -110.541659  71.499813  -6.514204  -13.717532  5.023644  0.134371  6.112827  3.766834  0.15106  4.583881  
0.0  93.25843  0.0  -2.543085  -44.042526  -87.770503  29.557512  -11.913301  2.471705  13.213553  -1.489319  13.11946  6.089658  1.671946  1.488816  20.011906  1.817231  -10.700662  -1.435754  7.557311  5.636845  2.969158  1.731547  0.419619  1.934529  -0.622975  -0.290066  5.296278  -1.678363  -0.842267  5.296278  -1.678363  -0.842267  -24.627339  -9.297051  -1.103634  -39.105989  64.194828  -0.793883  -18.459464  -42.73266  102.654868  122.520642  25.159343  12.330155  -9.157162  -7.112374  27.435316  99.523796  28.83469  60.403049  -35.536356  1.05918  -110.416376  73.269551  -6.221212  -14.859419  5.195  1.504815  6.737372  3.879994  1.186155  5.040379  
0.0  93.25843  0.0  -3.299626  -39.319019  -87.530265  29.202276  -12.879097  1.809102  11.598854  -1.572844  12.835133  5.324307  1.791807  1.357884  18.001498  1.814129  -10.291825  -2.745903  7.132506  5.896946  2.796591  1.823013  0.532712  1.114175  -1.134342  -0.373208  3.064967  -3.082562  -1.072877  3.064967  -3.082562  -1.072876  -22.870415  -9.95342  -0.349462  -31.983024  64.311655  7.421111  -14.564194  -44.363561  95.607524  121.783072  24.948007  9.252963  -8.38954  -4.476083  28.640135  93.176073  27.764128  61.368411  -34.050778  1.557738  -110.801248  74.664227  -6.108691  -14.768431  5.880598  3.030378  7.66084  4.372219  2.347176  5.715741  
0.0  93.25843  0.0  -4.086365  -34.642897  -87.215337  28.541001  -13.866408  1.050086  9.541095  -1.551251  12.511608  4.740967  1.924286  1.227272  15.972686  1.814712  -10.14025  -3.965732  6.712703  6.378942  2.624756  1.915039  0.58462  0.307693  -1.315634  -0.344804  0.860582  -3.591611  -0.960093  0.860582  -3.591612  -0.960092  -19.235834  -13.072247  -0.226161  -28.255356  64.164462  13.687403  -10.115115  -44.58303  88.510652  120.99496  23.95637  11.857221  -6.697078  -3.853251  28.647472  86.327887  26.204191  61.364697  -34.843937  1.66321  -109.555209  76.686674  -4.920719  -16.709025  6.0303  3.303285  7.538376  4.481498  2.552579  5.620245  
0.0  93.25843  0.0  -4.974548  -30.2556  -86.885784  27.416877  -14.941146  0.258973  7.370358  -1.44794  12.158717  5.118189  1.992415  1.557144  14.253438  1.553575  -10.009245  -5.414565  6.487428  6.801716  2.52103  2.013451  0.59769  -0.209713  -1.5351  -0.448669  -0.545373  -4.199735  -1.214562  -0.545373  -4.199735  -1.214562  -16.881865  -15.605239  0.112045  -26.086149  63.642587  18.894572  -3.844192  -44.434021  80.662843  120.218502  23.934803  18.180146  -6.55675  -2.906525  28.66835  80.127291  23.750329  61.1489  -34.899932  1.902703  -109.342859  78.751277  -4.466051  -16.623201  5.932687  3.65898  8.053866  4.400634  2.823284  6.003462  
0.0  93.25843  0.0  -6.130849  -26.772816  -86.542069  26.246343  -16.228568  -0.464117  5.713585  -1.267279  11.906854  5.092403  2.081254  1.490385  13.543115  0.745907  -9.768656  -6.675794  6.633864  7.128002  2.514246  2.054883  0.643807  -0.460279  -1.542167  -0.407132  -1.233642  -4.222805  -1.084785  -1.233642  -4.222805  -1.084785  -15.2305  -19.300216  0.033315  -24.28901  62.329278  23.857838  4.158992  -43.486671  71.307747  119.147845  23.26309  23.836814  -7.033292  -3.377498  27.496465  74.761323  20.772938  60.671202  -33.926398  1.107038  -108.931835  80.244808  -4.154096  -15.716829  4.954549  3.087956  7.65357  3.676992  2.378626  5.714182  
0.0  93.25843  0.0  -6.888905  -23.526646  -87.104638  24.170342  -17.465764  -0.204776  4.73935  -1.063168  11.672214  5.183235  2.125764  1.446636  12.945951  0.033841  -8.922947  -7.746446  6.794245  7.593183  2.546615  2.076571  0.711661  -0.482923  -1.628232  -0.281927  -1.302816  -4.455975  -0.739064  -1.302816  -4.455975  -0.739064  -14.198869  -21.980215  -0.382636  -23.357227  61.454524  27.255258  11.167421  -42.731541  63.655399  117.192446  21.71666  26.279724  -9.914758  -2.214962  26.208388  71.372795  17.76034  59.785728  -33.423715  -0.23261  -108.935744  77.138125  -4.711611  -14.970432  3.514993  3.021268  7.40699  2.599438  2.309034  5.536785  
